<svg width="100" height="100" viewBox="0 0 496 512" xmlns="http://www.w3.org/2000/svg">
  <path fill="#1ED760" d="M248 8C111 8 0 119 0 256s111 248 248 248 248-111 248-248S385 8 248 8zM370.5 372.3c-4.7 7.7-14.7 10.1-22.4 5.4-61.1-37.2-137.9-45.6-228.7-25.1-8.8 2-17.7-3.4-19.7-12.3s3.4-17.7 12.3-19.7c99.3-22.5 183.6-12.8 252.8 28.9 7.7 4.7 10.1 14.7 5.7 22.8zm31.5-63.2c-5.8 9.3-18.2 12.4-27.5 6.6-70-43.3-176.7-56-259.7-30.7-10.4 3.1-21.5-2.8-24.6-13.2s2.8-21.5 13.2-24.6c93.8-28.5 209.8-14.2 288.7 34.1 9.3 5.8 12.4 18.2 6.6 27.8zm2.9-65.4C327.5 194 186.5 188.7 96.2 216c-12 3.6-24.8-3.1-28.4-15.1s3.1-24.8 15.1-28.4c103.1-31.4 254.9-25.1 362.1 39.8 10.7 6.3 14.2 20.1 7.9 30.8-6.2 10.6-20 14.1-30.7 7.8z"/>
</svg>